<!-- Generated by IcoMoon.io -->
<svg version="1.1" xmlns="http://www.w3.org/2000/svg" width="32" height="32" viewBox="0 0 32 32">
<title>iconmonstr-school-27</title>
<path d="M32 23.987l-10.308-0.001 3.641 5.333h-1.748l-3.648-5.333h-2.604l-3.648 5.333h-1.685l3.643-5.333h-3.933v-1.333h10.957v-1.333h4v1.333h4v-18.667h-22.667v0.596h-1.333v-1.929h25.333v21.333zM9.012 11.987c0.865 0 1.724-0.284 2.256-0.581 1.007-0.56 3.593-2.191 4.647-2.832 0.287-0.173 0.661-0.109 0.872 0.152l0.012 0.013c0.219 0.273 0.193 0.667-0.057 0.907l-4.495 4.285c-0.695 0.664-1.096 1.577-1.137 2.536-0.127 2.943-0.348 9.216-0.443 11.779-0.021 0.6-0.515 1.075-1.115 1.075h-0.001c-0.592 0-1.048-0.464-1.115-1.051-0.148-1.309-0.439-4.372-0.569-5.616-0.053-0.512-0.372-0.817-0.779-0.819-0.405-0.003-0.697 0.301-0.731 0.811-0.083 1.228-0.355 4.332-0.456 5.628-0.045 0.588-0.529 1.047-1.12 1.047h-0.001c-0.603 0-1.097-0.475-1.123-1.079-0.129-3.12-0.492-11.951-0.492-11.951l-1.716 3.108c-0.187 0.339-0.593 0.485-0.953 0.347l-0.001-0.001c-0.304-0.117-0.495-0.407-0.495-0.72l0.029-0.209 1.659-5.857c0.163-0.573 0.687-0.969 1.284-0.969h6.040zM18.667 14.653h6.667v-1.333h-6.667v1.333zM18.667 11.987h9.333v-1.333h-9.333v1.333zM7.165 5.32c1.655 0 3 1.344 3 3s-1.345 3-3 3c-1.656 0-3-1.344-3-3s1.344-3 3-3zM18.667 9.32h9.333v-1.333h-9.333v1.333z"></path>
</svg>
