<!-- Generated by IcoMoon.io -->
<svg version="1.1" xmlns="http://www.w3.org/2000/svg" width="32" height="32" viewBox="0 0 32 32">
<title>iconmonstr-medical-6</title>
<path d="M25.207 18.667c-2.705 3.201-6.483 6.673-10.54 10.667-7.857-7.733-14.667-13.512-14.667-19.161 0-8.205 10.819-10.116 14.667-3.568 3.82-6.5 14.667-4.665 14.667 3.568 0 1.045-0.233 2.096-0.663 3.161h-8.371c-0.337 0-0.648 0.183-0.813 0.477l-1.084 1.933-3.027-5.916c-0.149-0.292-0.441-0.485-0.768-0.507-0.328-0.021-0.643 0.129-0.829 0.399l-2.507 3.613h-1.636c-0.461-0.797-1.323-1.333-2.309-1.333-1.471 0-2.667 1.195-2.667 2.667s1.196 2.667 2.667 2.667c0.987 0 1.848-0.536 2.309-1.333h2.608c0.304 0 0.588-0.148 0.764-0.396l1.319-1.875 3.008 6.079c0.152 0.305 0.457 0.505 0.797 0.519 0.341 0.015 0.661-0.157 0.839-0.449l2.345-3.877h10.684v2.667h-6.793z"></path>
</svg>
