<!-- Generated by IcoMoon.io -->
<svg version="1.1" xmlns="http://www.w3.org/2000/svg" width="32" height="32" viewBox="0 0 32 32">
<title>house</title>
<path d="M32 16.197l-1.815 1.953-14.185-13.177-14.185 13.157-1.815-1.953 16-14.844 16 14.864zM26.667 18.529l-2.667 13.471h-16l-2.667-13.471 10.667-9.925 10.667 9.925zM17.333 26.667c0-0.736-0.597-1.333-1.333-1.333s-1.333 0.597-1.333 1.333 0.597 1.333 1.333 1.333 1.333-0.597 1.333-1.333zM18.667 20c0-1.473-1.195-2.667-2.667-2.667s-2.667 1.193-2.667 2.667 1.195 2.667 2.667 2.667 2.667-1.193 2.667-2.667z"></path>
</svg>
