<!-- Generated by IcoMoon.io -->
<svg version="1.1" xmlns="http://www.w3.org/2000/svg" width="32" height="32" viewBox="0 0 32 32">
<title>iconmonstr-user-29</title>
<path d="M23.996 24h-15.993l-0.003-0.831c0-1.679 0.133-2.648 2.117-3.107 2.245-0.519 4.459-0.981 3.393-2.945-3.155-5.817-0.899-9.117 2.488-9.117 3.321 0 5.635 3.177 2.488 9.119-1.033 1.952 1.101 2.416 3.393 2.945 1.987 0.459 2.119 1.429 2.119 3.111l-0.003 0.825zM30.411 21.048c-1.72-0.397-3.32-0.745-2.545-2.209 2.359-4.456 0.625-6.839-1.867-6.839-1.687 0-2.997 1.089-2.997 3.099 0 5.204 3.024 2.36 2.995 8.901h6.001l0.003-0.617c0-1.261-0.099-1.991-1.589-2.335zM0.003 24h6.001c-0.028-6.541 2.995-3.696 2.995-8.901 0-2.009-1.311-3.099-2.997-3.099-2.492 0-4.225 2.383-1.865 6.839 0.775 1.465-0.825 1.812-2.545 2.209-1.492 0.344-1.591 1.073-1.591 2.335l0.003 0.617z"></path>
</svg>
